
		<svg xmlns="http://www.w3.org/2000/svg" xmlns:xlink="http://www.w3.org/1999/xlink" version="1.1" width="3159.095944545586" height="1091.1947821566673">
			
			<g transform="scale(7.954797227279297) translate(10, 10)">
				<defs id="SvgjsDefs2483"/><g id="SvgjsG2484" featureKey="root" fill="#fff"/><g id="SvgjsG2485" featureKey="symbol1" fill="#fff" transform="matrix(1.2443144908097434,0,0,1.2443144908097434,-18.071741368156808,-3.6317914863492167)"><title>Noun icons</title><path d="M41.54,75.27a6.84,6.84,0,0,0-3.69,1.08l-6.9-6.9V54.12a6.89,6.89,0,1,0-3,0V70.07a1.5,1.5,0,0,0,.44,1.06l7.34,7.34a6.89,6.89,0,1,0,5.81-3.2Zm-16-27.87a3.9,3.9,0,1,1,3.89,3.9A3.9,3.9,0,0,1,25.55,47.39Zm16,38.66a3.9,3.9,0,1,1,3.9-3.9A3.9,3.9,0,0,1,41.54,86.06Z"/><path d="M46,53.54V39.34a6.89,6.89,0,1,0-3,0v14.2a6.9,6.9,0,1,0,3,0ZM40.59,32.62a3.9,3.9,0,1,1,3.89,3.9A3.9,3.9,0,0,1,40.59,32.62Zm3.89,31.55a3.9,3.9,0,1,1,3.9-3.9A3.9,3.9,0,0,1,44.49,64.17Z"/><path d="M71.94,48a6.84,6.84,0,0,0-3.69,1.08l-9.44-9.44V24.57a6.89,6.89,0,1,0-3,0v43a6.9,6.9,0,1,0,3,0V43.87l7.31,7.31A6.89,6.89,0,1,0,71.94,48ZM53.42,17.84a3.9,3.9,0,1,1,3.89,3.9A3.9,3.9,0,0,1,53.42,17.84Zm7.79,56.43a3.9,3.9,0,1,1-3.9-3.9A3.9,3.9,0,0,1,61.21,74.27Zm10.73-15.5a3.9,3.9,0,1,1,3.9-3.9A3.9,3.9,0,0,1,71.94,58.77Z"/></g><g id="SvgjsG2486" featureKey="text1" fill="#fff" transform="matrix(3.1413615075045684,0,0,3.1413615075045684,96.23036379432588,-0.15183395080837414)"><path d="M9.72 17.4 l0 4.1 q0 1.34 0.5 1.98 q-0.76 0.68 -1.84 0.68 q-1.04 0 -1.42 -0.48 t-0.38 -1.46 l0 -4.26 q0 -0.68 -0.18 -1 t-0.7 -0.32 q-0.3 0 -0.68 0.16 t-0.78 0.52 l0 6.68 q-0.66 0.12 -1.52 0.12 t-1.52 -0.12 l0 -14.58 l0.14 -0.14 l1.2 0 q0.96 0 1.33 0.42 t0.37 1.46 l0 3.78 q1.34 -1.1 2.68 -1.1 t2.07 0.97 t0.73 2.59 z M19.84 20.02 l-5.22 0 q0.04 0.9 0.46 1.4 t1.38 0.5 q0.48 0 1.11 -0.14 t1.45 -0.46 q0.66 0.68 0.82 1.84 q-1.6 1.14 -3.92 1.14 q-1.26 0 -2.11 -0.4 t-1.38 -1.12 t-0.75 -1.7 t-0.22 -2.14 q0 -1.12 0.27 -2.07 t0.82 -1.65 t1.4 -1.1 t1.99 -0.4 q0.96 0 1.73 0.32 t1.31 0.88 t0.83 1.34 t0.29 1.7 q0 1.22 -0.26 2.06 z M14.6 17.86 l2.64 0 l0 -0.22 q0 -0.74 -0.33 -1.22 t-0.99 -0.48 q-0.64 0 -0.95 0.45 t-0.37 1.47 z M30.639999999999997 14.34 l-2.46 9.4 q-0.58 2.16 -1.54 3.32 q-1.1 1.32 -3.38 1.32 q-1.22 0 -2.42 -0.4 q-0.06 -0.54 0.12 -1.21 t0.5 -1.03 q0.9 0.3 1.8 0.3 q1.48 0 1.96 -1.62 l0.08 -0.28 q-1.74 0 -2.08 -1.26 l-2.32 -8.62 q0.92 -0.42 1.72 -0.42 t1.17 0.3 t0.55 1.04 l0.92 3.84 q0.14 0.54 0.46 2.64 q0.02 0.14 0.16 0.14 l1.74 -7.76 q0.48 -0.14 1.3 -0.14 q0.92 0 1.6 0.22 z M36.919999999999995 18.44 l0 -0.26 q0 -1.12 -0.24 -1.63 t-0.9 -0.51 q-0.7 0 -0.98 0.69 t-0.28 2.29 q0 0.8 0.11 1.34 t0.32 0.87 t0.53 0.48 t0.76 0.15 q0.46 0 1.02 -0.2 t1.2 -0.64 q0.18 0.1 0.37 0.29 t0.35 0.43 t0.28 0.51 t0.18 0.51 q-0.66 0.7 -1.72 1.12 t-2.16 0.42 q-2.14 0 -3.28 -1.4 t-1.14 -3.98 q0 -1.32 0.37 -2.3 t0.98 -1.62 t1.4 -0.96 t1.65 -0.32 q0.88 0 1.61 0.24 t1.26 0.68 t0.82 1.05 t0.29 1.35 q0 0.84 -0.49 1.18 t-1.21 0.34 q-0.6 0 -1.1 -0.12 z M45.339999999999996 21.72 l0.54 0 q0.24 0.66 0.24 1.32 t-0.06 0.86 q-1.2 0.2 -2.14 0.2 q-1.36 0 -1.93 -0.67 t-0.57 -2.11 l0 -11.9 l0.12 -0.14 l1.22 0 q0.94 0 1.32 0.42 t0.38 1.46 l0 9.62 q0 0.94 0.88 0.94 z M56.17999999999999 22.56 q-0.1 0.42 -0.38 0.9 t-0.58 0.7 q-1.4 -0.04 -2.16 -1.06 q-1.3 1.2 -2.82 1.2 q-0.78 0 -1.36 -0.25 t-0.98 -0.67 t-0.6 -0.97 t-0.2 -1.15 q0 -0.86 0.31 -1.51 t0.85 -1.08 t1.26 -0.65 t1.54 -0.22 q0.46 0 0.81 0.01 t0.61 0.03 l0 -0.38 q0 -1.26 -1.3 -1.26 q-0.84 0 -2.94 0.64 q-0.6 -0.7 -0.76 -2.18 q0.48 -0.18 1.07 -0.34 t1.21 -0.28 t1.22 -0.19 t1.08 -0.07 q0.7 0 1.35 0.2 t1.14 0.61 t0.78 1.06 t0.29 1.55 l0 4.06 q0 0.92 0.56 1.3 z M50.13999999999999 21.06 q0 0.94 1.08 0.94 q0.56 0 1.26 -0.58 l0 -1.6 q-0.4 -0.02 -0.67 -0.03 t-0.41 -0.01 q-1.26 0 -1.26 1.28 z M57.15999999999999 23.32 q0.02 -0.52 0.27 -1.14 t0.59 -0.98 q1.6 0.84 2.78 0.84 q0.56 0 0.86 -0.19 t0.3 -0.51 q0 -0.6 -0.92 -0.9 l-1.1 -0.42 q-2.5 -0.92 -2.5 -3 q0 -1.52 1.05 -2.41 t2.83 -0.89 q0.88 0 1.94 0.25 t1.74 0.59 q0.04 0.56 -0.22 1.23 t-0.64 0.95 q-1.68 -0.76 -2.8 -0.76 q-0.4 0 -0.61 0.18 t-0.21 0.46 q0 0.48 0.76 0.76 l1.24 0.44 q2.66 0.94 2.66 3.22 q0 1.5 -1.1 2.38 t-3.14 0.88 t-3.78 -0.98 z M66.02 23.32 q0.02 -0.52 0.27 -1.14 t0.59 -0.98 q1.6 0.84 2.78 0.84 q0.56 0 0.86 -0.19 t0.3 -0.51 q0 -0.6 -0.92 -0.9 l-1.1 -0.42 q-2.5 -0.92 -2.5 -3 q0 -1.52 1.05 -2.41 t2.83 -0.89 q0.88 0 1.94 0.25 t1.74 0.59 q0.04 0.56 -0.22 1.23 t-0.64 0.95 q-1.68 -0.76 -2.8 -0.76 q-0.4 0 -0.61 0.18 t-0.21 0.46 q0 0.48 0.76 0.76 l1.24 0.44 q2.66 0.94 2.66 3.22 q0 1.5 -1.1 2.38 t-3.14 0.88 t-3.78 -0.98 z M79.27999999999999 16.32 l0 7.68 q-0.34 0.06 -0.74 0.09 t-0.82 0.03 t-0.83 -0.03 t-0.75 -0.09 l0 -6.62 q0 -1.16 -0.94 -1.16 l-0.3 0 q-0.12 -0.38 -0.12 -1.06 q0 -0.66 0.12 -1.12 q0.52 -0.04 0.96 -0.07 t0.8 -0.03 l0.44 0 q1.02 0 1.6 0.64 t0.58 1.74 z M75.77999999999999 10 q0.58 -0.32 1.5 -0.32 q0.94 0 1.46 0.32 q0.24 0.54 0.24 1.16 t-0.24 1.16 q-0.58 0.3 -1.52 0.3 t-1.44 -0.3 q-0.24 -0.54 -0.24 -1.16 t0.24 -1.16 z M86.61999999999998 18.44 l0 -0.26 q0 -1.12 -0.24 -1.63 t-0.9 -0.51 q-0.7 0 -0.98 0.69 t-0.28 2.29 q0 0.8 0.11 1.34 t0.32 0.87 t0.53 0.48 t0.76 0.15 q0.46 0 1.02 -0.2 t1.2 -0.64 q0.18 0.1 0.37 0.29 t0.35 0.43 t0.28 0.51 t0.18 0.51 q-0.66 0.7 -1.72 1.12 t-2.16 0.42 q-2.14 0 -3.28 -1.4 t-1.14 -3.98 q0 -1.32 0.37 -2.3 t0.98 -1.62 t1.4 -0.96 t1.65 -0.32 q0.88 0 1.61 0.24 t1.26 0.68 t0.82 1.05 t0.29 1.35 q0 0.84 -0.49 1.18 t-1.21 0.34 q-0.6 0 -1.1 -0.12 z"/></g>
			</g>
		</svg>
	